<svg xmlns="http://www.w3.org/2000/svg" width="20" height="20" viewBox="0 0 20 20"><g><g><path fill="#0674ec" d="M10.415 12.358v1.573a.417.417 0 0 1-.415.418.417.417 0 0 1-.415-.418v-1.573c0-.23.186-.418.415-.418.23 0 .415.187.415.418zm0-6.29v1.573a.417.417 0 0 1-.415.418.417.417 0 0 1-.415-.418V6.068c0-.23.186-.418.415-.418.23 0 .415.187.415.418zm0 9.435v1.572a.417.417 0 0 1-.415.42.417.417 0 0 1-.415-.42v-1.572c0-.231.186-.418.415-.418.23 0 .415.187.415.418zm0-12.58v1.573a.417.417 0 0 1-.415.418.417.417 0 0 1-.415-.418V2.923c0-.231.186-.418.415-.418.23 0 .415.187.415.418zM4.953 10a.417.417 0 0 1-.416.418h-1.56A.417.417 0 0 1 2.56 10c0-.231.186-.42.415-.42h1.561c.23 0 .416.189.416.42zm3.121 0a.417.417 0 0 1-.415.418H6.098A.417.417 0 0 1 5.682 10c0-.231.186-.42.416-.42h1.56c.23 0 .416.189.416.42zm3.122 0a.417.417 0 0 1-.416.418h-.365v.368c0 .23-.186.418-.415.418a.417.417 0 0 1-.415-.418v-.368h-.366A.417.417 0 0 1 8.804 10c0-.231.186-.42.415-.42h.366v-.367c0-.23.186-.418.415-.418.23 0 .415.187.415.418v.368h.365c.23 0 .416.188.416.419zm6.243 0a.417.417 0 0 1-.415.418h-1.561a.417.417 0 0 1-.416-.418c0-.231.186-.42.416-.42h1.56c.23 0 .416.189.416.42zm-3.122 0a.417.417 0 0 1-.415.418h-1.56a.417.417 0 0 1-.416-.418c0-.231.186-.42.415-.42h1.561c.23 0 .415.189.415.42zM19.941.514v18.971c0 .231-.186.418-.415.418H.474a.417.417 0 0 1-.415-.418V.514c0-.231.186-.419.415-.419h19.052c.23 0 .415.188.415.419zm-.83.419h-8.696v.418a.417.417 0 0 1-.415.418.417.417 0 0 1-.415-.418V.933H.889V9.58h.527c.23 0 .415.188.415.419a.417.417 0 0 1-.415.418H.889v8.648h8.696v-.418c0-.231.186-.418.415-.418.23 0 .415.187.415.418v.418h8.695v-8.648h-.526A.417.417 0 0 1 18.17 10c0-.231.186-.42.415-.42h.526z"/></g></g></svg>