<svg xmlns="http://www.w3.org/2000/svg" width="20" height="19" viewBox="0 0 20 19"><g><g><path fill="#747b86" d="M20.016 10.436a.29.29 0 0 1-.293.288H7.51a.29.29 0 0 1-.293-.288.29.29 0 0 1 .293-.287h12.212a.29.29 0 0 1 .293.287zm0-1.842a.29.29 0 0 1-.293.288H7.51a.29.29 0 0 1-.293-.288.29.29 0 0 1 .293-.287h12.212a.29.29 0 0 1 .293.287zm-14.403-.92v3.684a.912.912 0 0 1-.92.901H.936a.912.912 0 0 1-.92-.901V7.674c0-.498.413-.902.92-.902h3.757c.508 0 .92.404.92.902zm-.587 0a.33.33 0 0 0-.333-.327H.936a.33.33 0 0 0-.333.327v3.684c0 .18.15.326.333.326h3.757a.33.33 0 0 0 .333-.326zm14.99-3.991a.29.29 0 0 1-.293.287H7.51a.29.29 0 0 1-.293-.287.29.29 0 0 1 .293-.288h12.212a.29.29 0 0 1 .293.288zM7.218 1.84a.29.29 0 0 1 .293-.288h12.212a.29.29 0 0 1 .293.288.291.291 0 0 1-.293.288H7.51a.291.291 0 0 1-.293-.288zM5.613.92v3.684a.912.912 0 0 1-.92.901H.936a.912.912 0 0 1-.92-.901V.92c0-.497.413-.902.92-.902h3.757c.508 0 .92.405.92.902zm-.587 0a.33.33 0 0 0-.333-.326H.936A.33.33 0 0 0 .603.92v3.684c0 .18.15.326.333.326h3.757a.33.33 0 0 0 .333-.326zm14.99 16.27a.29.29 0 0 1-.293.288H7.51a.29.29 0 0 1-.293-.288.29.29 0 0 1 .293-.288h12.212a.29.29 0 0 1 .293.288zm0-1.842a.29.29 0 0 1-.293.288H7.51a.29.29 0 0 1-.293-.288.29.29 0 0 1 .293-.287h12.212a.29.29 0 0 1 .293.287zm-14.403-.92v3.683a.912.912 0 0 1-.92.902H.936a.912.912 0 0 1-.92-.902v-3.684c0-.497.413-.901.92-.901h3.757c.508 0 .92.404.92.901zm-.587 0a.33.33 0 0 0-.333-.327H.936a.33.33 0 0 0-.333.326v3.684c0 .18.15.326.333.326h3.757a.33.33 0 0 0 .333-.326z"/></g></g></svg>